<svg height='300px' width='300px'  fill="#000000" xmlns="http://www.w3.org/2000/svg" xmlns:xlink="http://www.w3.org/1999/xlink" version="1.1" x="0px" y="0px" viewBox="0 0 64 64" style="enable-background:new 0 0 64 64;" xml:space="preserve"><g><path d="M53.649,45C53.867,44.544,54,44.039,54,43.5v-8.482h8v-12h-6v-3c0-4.212-2.913-7.748-6.817-8.724   C50.302,10.203,51,8.682,51,7c0-3.309-2.691-6-6-6s-6,2.691-6,6c0,1.77,0.775,3.359,1.998,4.458   c-1.392,0.319-2.747,0.799-4.023,1.437l-9.081,4.54c-0.321,0.161-0.605,0.369-0.853,0.611c-0.604-0.086-1.268-0.034-1.878,0.22   l-10.362,4.317C15.551,21.581,16,20.344,16,19c0-3.309-2.691-6-6-6s-6,2.691-6,6c0,1.945,0.935,3.672,2.374,4.769   C3.214,25.167,1,28.328,1,32v8v19.5c0,1.753,1.299,3.195,2.983,3.448V63H63V45H53.649z M52,43.5c0,0.827-0.673,1.5-1.5,1.5   S49,44.327,49,43.5v-8.482h3V43.5z M47,35.018V43.5c0,0.539,0.133,1.044,0.351,1.5h-4.702C42.867,44.544,43,44.039,43,43.5v-8.736   l3-0.818v1.072H47z M60,25.018v8H48v-8h2v1c0,1.654,1.346,3,3,3s3-1.346,3-3v-1H60z M41,7c0-2.206,1.794-4,4-4s4,1.794,4,4   c0,2.154-1.715,3.904-3.849,3.985l-0.133-0.002l0,0.016C45.011,10.998,45.006,11,45,11C42.794,11,41,9.206,41,7z M28.789,19.224   l9.081-4.54C40.071,13.582,42.537,13,45,13c0.086,0,0.169-0.009,0.254-0.013L47,13.018c3.86,0,7,3.14,7,7v6c0,0.551-0.449,1-1,1   s-1-0.449-1-1v-5.159c0-2.098-0.813-4.073-2.29-5.562l-1.42,1.408c1.103,1.112,1.71,2.588,1.71,4.154v2.159h-4v8.855l-3.526,0.962   C41.606,33.071,41,33.864,41,34.764V43.5c0,0.827-0.673,1.5-1.5,1.5S38,44.327,38,43.5V31.472c0-1.144,0.635-2.172,1.658-2.683   L44,26.618V16h-2.236l-11.698,5.849C29.868,21.948,29.647,22,29.427,22C28.64,22,28,21.36,28,20.5   C28,19.956,28.302,19.467,28.789,19.224z M14,37h-1v-5.365l15.02-7.068c0.329-0.154,0.617-0.373,0.879-0.62   C29.073,23.974,29.247,24,29.427,24c0.528,0,1.058-0.125,1.533-0.362L42,18.118v7.264L38.764,27C37.059,27.852,36,29.566,36,31.472   V43.5c0,0.539,0.133,1.044,0.351,1.5H21.609L19,47.405V42C19,39.243,16.757,37,14,37z M6,19c0-2.206,1.794-4,4-4s4,1.794,4,4   s-1.794,4-4,4S6,21.206,6,19z M3,32c0-3.86,3.14-7,7-7h4.2l11.733-4.889c0.03-0.012,0.066-0.02,0.099-0.031   C26.012,20.241,26,20.405,26,20.573c0,0.891,0.35,1.696,0.909,2.306L11,30.365V39h3c1.654,0,3,1.346,3,3v8v1.499   C17,52.327,16.327,53,15.499,53c-0.401,0-0.778-0.156-1.061-0.439c-0.284-0.284-0.439-0.661-0.439-1.062L14,45c0-1.103-0.897-2-2-2   H6c-1.654,0-3-1.346-3-3V32z M8,45h4l-0.001,6.498c0,0.669,0.193,1.307,0.542,1.859L8,57.541V45z M3,59.5V43.974   C3.838,44.609,4.87,45,6,45v14.5C6,60.327,5.327,61,4.5,61S3,60.327,3,59.5z M61,61H7.649c0.095-0.199,0.17-0.407,0.227-0.625   l6.18-5.695c0.449,0.204,0.936,0.32,1.443,0.32C17.43,55,19,53.43,19,51.499v-1.375L22.391,47H61V61z"></path><rect x="57" y="57" width="2" height="2"></rect><rect x="53" y="57" width="2" height="2"></rect><rect x="49" y="57" width="2" height="2"></rect></g></svg>