<svg height='300px' width='300px'  fill="#000000" xmlns="http://www.w3.org/2000/svg" xmlns:xlink="http://www.w3.org/1999/xlink" version="1.1" x="0px" y="0px" viewBox="0 0 48 48" enable-background="new 0 0 48 48" xml:space="preserve"><g><path fill="#000000" d="M47.2,0.8C46.6,0.3,45,0,42.4,0c-5.1,0-11.9,1.2-15.7,4.6c-0.1,0-0.1,0.1-0.2,0.1l-4.5,4.5L11,10.1   c-0.2,0-0.5,0.1-0.6,0.3L0.3,20.6c-0.3,0.3-0.4,0.7-0.2,1.1C0.2,22,0.6,22.3,1,22.3l7.9,0.2l-3.3,3.3c-0.2,0.2-0.3,0.4-0.3,0.7   s0.1,0.5,0.3,0.7L7,28.7L4.6,34c-0.2,0.4-0.1,0.8,0.2,1.1l8.1,8.1c0.2,0.2,0.4,0.3,0.7,0.3c0.1,0,0.3,0,0.4-0.1l5.2-2.4l1.5,1.5   c0.2,0.2,0.4,0.3,0.7,0.3s0.5-0.1,0.7-0.3l3.3-3.3l0.2,7.9c0,0.4,0.3,0.8,0.6,0.9c0.1,0,0.2,0.1,0.4,0.1c0.3,0,0.5-0.1,0.7-0.3   l10.1-10.1c0.2-0.2,0.3-0.4,0.3-0.6l0.9-11.1l4.5-4.5c0.1-0.1,0.1-0.1,0.1-0.2C48.6,15.4,48.7,2.3,47.2,0.8z M3.3,20.3l8.2-8.2   l8.3-0.7l-9.1,9.1L3.3,20.3z M13.8,41.2l-7.1-7.1l1.8-3.9l9.2,9.2L13.8,41.2z M35.9,36.4l-8.2,8.2l-0.2-7.4l9.1-9.1L35.9,36.4z    M41.8,20c0,0-0.1,0.1-0.1,0.1L21.5,40.3L7.6,26.5L27.9,6.3c0,0,0.1-0.1,0.1-0.1C31.3,3.1,37.7,2,42.4,2c1.8,0,2.9,0.2,3.3,0.3   C46.3,4.2,46.3,15.1,41.8,20z"></path><path fill="#000000" d="M9.4,42.3L7,44.7c-0.4,0.4-0.4,1,0,1.4c0.2,0.2,0.5,0.3,0.7,0.3s0.5-0.1,0.7-0.3l2.4-2.4   c0.4-0.4,0.4-1,0-1.4S9.7,41.9,9.4,42.3z"></path><path fill="#000000" d="M8.2,39.8c-0.4-0.4-1-0.4-1.4,0l-3.4,3.4c-0.4,0.4-0.4,1,0,1.4c0.2,0.2,0.5,0.3,0.7,0.3s0.5-0.1,0.7-0.3   l3.4-3.4C8.6,40.8,8.6,40.1,8.2,39.8z"></path><path fill="#000000" d="M5.7,38.6c0.4-0.4,0.4-1,0-1.4s-1-0.4-1.4,0l-2.4,2.4c-0.4,0.4-0.4,1,0,1.4c0.2,0.2,0.5,0.3,0.7,0.3   s0.5-0.1,0.7-0.3L5.7,38.6z"></path><path fill="#000000" d="M34.9,6.9c-1.6,0-3.2,0.6-4.4,1.8c-1.2,1.2-1.8,2.7-1.8,4.4s0.6,3.2,1.8,4.4c1.2,1.2,2.7,1.8,4.4,1.8   c1.6,0,3.2-0.6,4.4-1.8c2.4-2.4,2.4-6.3,0-8.7C38.1,7.5,36.6,6.9,34.9,6.9z M37.9,16c-0.8,0.8-1.8,1.2-2.9,1.2   c-1.1,0-2.2-0.4-2.9-1.2c-0.8-0.8-1.2-1.8-1.2-2.9s0.4-2.2,1.2-2.9c0.8-0.8,1.8-1.2,2.9-1.2c1.1,0,2.2,0.4,2.9,1.2   C39.5,11.7,39.5,14.4,37.9,16z"></path></g></svg>